<?xml version="1.0" encoding="UTF-8" standalone="no"?>
<!-- Generator: Adobe Illustrator 19.0.0, SVG Export Plug-In . SVG Version: 6.00 Build 0)  -->

<!--suppress XmlUnusedNamespaceDeclaration -->
<svg
   xmlns:dc="http://purl.org/dc/elements/1.1/"
   xmlns:cc="http://creativecommons.org/ns#"
   xmlns:rdf="http://www.w3.org/1999/02/22-rdf-syntax-ns#"
   xmlns:svg="http://www.w3.org/2000/svg"
   xmlns="http://www.w3.org/2000/svg"
   xmlns:sodipodi="http://sodipodi.sourceforge.net/DTD/sodipodi-0.dtd"
   xmlns:inkscape="http://www.inkscape.org/namespaces/inkscape"
   version="1.1"
   id="Capa_1"
   x="0px"
   y="0px"
   viewBox="0 0 600 600"
   xml:space="preserve"
   sodipodi:docname="icon.svg"
   inkscape:version="0.92.2 5c3e80d, 2017-08-06"
   width="600"
   height="600"><metadata
     id="metadata119"><rdf:RDF><cc:Work
         rdf:about=""><dc:format>image/svg+xml</dc:format><dc:type
           rdf:resource="http://purl.org/dc/dcmitype/StillImage" /><dc:title></dc:title></cc:Work></rdf:RDF></metadata><defs
     id="defs117" /><sodipodi:namedview
     pagecolor="#ffffff"
     bordercolor="#666666"
     borderopacity="1"
     objecttolerance="10"
     gridtolerance="10"
     guidetolerance="10"
     inkscape:pageopacity="0"
     inkscape:pageshadow="2"
     inkscape:window-width="1165"
     inkscape:window-height="699"
     id="namedview115"
     showgrid="false"
     inkscape:zoom="0.59263393"
     inkscape:cx="246.23729"
     inkscape:cy="249.06702"
     inkscape:window-x="749"
     inkscape:window-y="364"
     inkscape:window-maximized="0"
     inkscape:current-layer="Capa_1"
     fit-margin-top="0"
     fit-margin-left="0"
     fit-margin-right="0"
     fit-margin-bottom="0" /><rect
     style="opacity:1;fill:#e6e6e6;fill-opacity:1;stroke:none;stroke-width:74.26480865;stroke-linecap:round;stroke-linejoin:miter;stroke-miterlimit:4;stroke-dasharray:none;stroke-dashoffset:0;stroke-opacity:1;paint-order:markers stroke fill"
     id="rect1450"
     width="600"
     height="600"
     x="0"
     y="0" /><g
     id="g1406"
     transform="rotate(-15,348.33809,-37.65309)"><path
       inkscape:connector-curvature="0"
       id="path2"
       d="m 230.06,136.814 v 38.234 c 0,1.639 -0.651,3.212 -1.81,4.371 l -15.033,15.033 c -1.159,1.159 -2.731,1.81 -4.371,1.81 h -99.229 c -1.639,0 -3.212,-0.651 -4.371,-1.81 L 90.213,179.419 c -1.159,-1.159 -1.81,-2.731 -1.81,-4.371 v -38.234 z"
       style="fill:#48709b" /><path
       inkscape:connector-curvature="0"
       id="path4"
       d="m 230.06,136.814 v 22.398 l -9.879,9.872 c -2.328,2.327 -5.485,3.634 -8.777,3.634 H 107.059 c -3.292,0 -6.449,-1.307 -8.777,-3.634 l -9.879,-9.872 v -22.398 z"
       style="fill:#304e75" /><path
       inkscape:connector-curvature="0"
       id="path6"
       d="m 230.054,39.856 v 99.227 c 0,1.648 -0.649,3.214 -1.803,4.378 l -15.03,15.03 c -1.164,1.154 -2.74,1.803 -4.378,1.803 h -99.227 c -1.638,0 -3.204,-0.649 -4.368,-1.803 l -15.03,-15.03 c -1.154,-1.164 -1.813,-2.73 -1.813,-4.378 V 39.856 c 0,-1.638 0.659,-3.204 1.813,-4.368 l 15.03,-15.03 c 1.164,-1.154 2.73,-1.813 4.368,-1.813 h 99.227 c 1.638,0 3.214,0.659 4.378,1.813 l 15.03,15.03 c 1.154,1.164 1.803,2.73 1.803,4.368 z"
       style="fill:#4d4d4d" /><path
       inkscape:connector-curvature="0"
       id="path8"
       d="m 230.054,115.141 v 23.941 c 0,1.648 -0.649,3.214 -1.803,4.378 l -15.03,15.03 c -1.164,1.154 -2.74,1.803 -4.378,1.803 h -99.227 c -1.638,0 -3.204,-0.649 -4.368,-1.803 l -15.03,-15.03 c -1.154,-1.164 -1.813,-2.73 -1.813,-4.378 v -23.941 l 18.657,18.646 h 104.347 z"
       style="fill:#000000;fill-opacity:0.26829272" /><path
       inkscape:connector-curvature="0"
       id="path80"
       d="m 203.734,51.529 c -4.267,0 -7.726,-3.459 -7.726,-7.726 v -0.888 c 0,-4.267 3.459,-7.726 7.726,-7.726 4.267,0 7.726,3.459 7.726,7.726 v 0.888 c 0.001,4.267 -3.459,7.726 -7.726,7.726 z"
       style="fill:#ffff2a;fill-opacity:1" /><path
       d="M 152.05296,113.35385 V 57.536385 q 0,-4.34941 1.98141,-6.52411 1.9814,-2.17472 5.12264,-2.17472 3.23789,0 5.2193,2.17472 2.02972,2.12638 2.02972,6.52411 v 55.817465 q 0,4.39774 -2.02972,6.57245 -1.98141,2.1747 -5.2193,2.1747 -3.09292,0 -5.12264,-2.1747 -1.98141,-2.22303 -1.98141,-6.57245 z"
       style="font-style:normal;font-variant:normal;font-weight:normal;font-stretch:normal;font-size:96px;line-height:1.25;font-family:'Arial Rounded MT Bold';-inkscape-font-specification:'Arial Rounded MT Bold, ';letter-spacing:0px;word-spacing:0px;fill:#e4eaf6;fill-opacity:1;stroke:none;stroke-width:1.030972"
       id="path1229"
       inkscape:connector-curvature="0" /></g><g
     id="g84"
     transform="translate(44,44)" /><g
     id="g86"
     transform="translate(44,44)" /><g
     id="g88"
     transform="translate(44,44)" /><g
     id="g90"
     transform="translate(44,44)" /><g
     id="g92"
     transform="translate(44,44)" /><g
     id="g94"
     transform="translate(44,44)" /><g
     id="g96"
     transform="translate(44,44)" /><g
     id="g98"
     transform="translate(44,44)" /><g
     id="g100"
     transform="translate(44,44)" /><g
     id="g102"
     transform="translate(44,44)" /><g
     id="g104"
     transform="translate(44,44)" /><g
     id="g106"
     transform="translate(44,44)" /><g
     id="g108"
     transform="translate(44,44)" /><g
     id="g110"
     transform="translate(44,44)" /><g
     id="g112"
     transform="translate(44,44)" /><path
     inkscape:connector-curvature="0"
     id="path943"
     d="m 440.835,180.814 v 38.234 c 0,1.639 -0.651,3.212 -1.81,4.371 l -15.033,15.033 c -1.159,1.159 -2.731,1.81 -4.371,1.81 h -99.229 c -1.639,0 -3.212,-0.651 -4.371,-1.81 l -15.033,-15.033 c -1.159,-1.159 -1.81,-2.731 -1.81,-4.371 v -38.234 z"
     style="fill:#48709b" /><path
     inkscape:connector-curvature="0"
     id="path945"
     d="m 440.835,180.814 v 22.398 l -9.879,9.872 c -2.328,2.327 -5.485,3.634 -8.777,3.634 H 317.834 c -3.292,0 -6.449,-1.307 -8.777,-3.634 l -9.879,-9.872 v -22.398 z"
     style="fill:#304e75" /><path
     inkscape:connector-curvature="0"
     id="path947"
     d="m 440.829,83.856 v 99.227 c 0,1.648 -0.649,3.214 -1.803,4.378 l -15.03,15.03 c -1.164,1.154 -2.74,1.803 -4.378,1.803 h -99.227 c -1.638,0 -3.204,-0.649 -4.368,-1.803 l -15.03,-15.03 c -1.154,-1.164 -1.813,-2.73 -1.813,-4.378 V 83.856 c 0,-1.638 0.659,-3.204 1.813,-4.368 l 15.03,-15.03 c 1.164,-1.154 2.73,-1.813 4.368,-1.813 h 99.227 c 1.638,0 3.214,0.659 4.378,1.813 l 15.03,15.03 c 1.154,1.164 1.803,2.73 1.803,4.368 z"
     style="fill:#4d4d4d" /><path
     inkscape:connector-curvature="0"
     id="path949"
     d="m 440.829,159.141 v 23.941 c 0,1.648 -0.649,3.214 -1.803,4.378 l -15.03,15.03 c -1.164,1.154 -2.74,1.803 -4.378,1.803 h -99.227 c -1.638,0 -3.204,-0.649 -4.368,-1.803 l -15.03,-15.03 c -1.154,-1.164 -1.813,-2.73 -1.813,-4.378 v -23.941 l 18.657,18.646 h 104.347 z"
     style="fill:#000000;fill-opacity:0.26829272" /><path
     inkscape:connector-curvature="0"
     id="path953"
     d="m 414.509,95.529 c -4.267,0 -7.726,-3.459 -7.726,-7.726 v -0.888 c 0,-4.267 3.459,-7.726 7.726,-7.726 4.267,0 7.726,3.459 7.726,7.726 v 0.888 c 10e-4,4.267 -3.459,7.726 -7.726,7.726 z"
     style="fill:#ffff2a;fill-opacity:1" /><g
     id="g1422"
     transform="matrix(1.0001624,0,0,1,43.942894,44)"><path
       id="path26"
       d="m 493.351,285.35652 v 38.234 c 0,1.639 -0.651,3.212 -1.81,4.371 l -15.033,15.033 c -1.159,1.159 -2.731,1.81 -4.371,1.81 h -99.219 c -1.639,0 -3.212,-0.651 -4.371,-1.81 l -15.033,-15.033 c -1.159,-1.159 -1.81,-2.731 -1.81,-4.371 v -38.234 z"
       style="fill:#48709b"
       inkscape:connector-curvature="0" /><path
       id="path28"
       d="m 493.351,285.35652 v 22.39801 l -9.869,9.869 c -2.329,2.329 -5.487,3.637 -8.78,3.637 h -104.35 c -3.293,0 -6.451,-1.308 -8.78,-3.637 l -9.869,-9.869 v -22.39801 z"
       style="fill:#304e75"
       inkscape:connector-curvature="0" /><path
       id="path30"
       d="m 493.355,188.39653 v 99.237 c 0,1.638 -0.659,3.204 -1.813,4.368 l -15.03,15.02999 c -1.164,1.154 -2.73,1.803 -4.368,1.803 h -99.227 c -1.638,0 -3.214,-0.649 -4.378,-1.803 l -15.03,-15.02999 c -1.154,-1.164 -1.803,-2.73 -1.803,-4.368 v -99.237 c 0,-1.638 0.649,-3.204 1.803,-4.368 l 15.03,-15.03 c 1.164,-1.154 2.74,-1.803 4.378,-1.803 h 99.227 c 1.638,0 3.204,0.649 4.368,1.803 l 15.03,15.03 c 1.153,1.164 1.813,2.73 1.813,4.368 z"
       style="fill:#4d4d4d"
       inkscape:connector-curvature="0" /><path
       id="path32"
       d="m 493.355,263.68253 v 23.952 c 0,1.63799 -0.659,3.204 -1.813,4.36799 l -15.03,15.03 c -1.164,1.154 -2.73,1.803 -4.368,1.803 h -99.227 c -1.638,0 -3.214,-0.649 -4.378,-1.803 l -15.03,-15.03 c -1.154,-1.16399 -1.803,-2.73 -1.803,-4.36799 v -23.952 l 18.646,18.646 h 104.357 z"
       style="fill:#000000;fill-opacity:0.26829272"
       inkscape:connector-curvature="0" /><path
       style="fill:#000000;fill-opacity:0.26829272"
       d="m 467.884,200.07052 c -4.267,0 -7.726,-3.459 -7.726,-7.726 v -0.888 c 0,-4.267 3.459,-7.726 7.726,-7.726 4.267,0 7.726,3.459 7.726,7.726 v 0.888 c 0,4.267 -3.459,7.726 -7.726,7.726 z"
       id="path48"
       inkscape:connector-curvature="0" /><path
       d="m 456.33511,240.63606 v 13.57983 q 0,2.7063 -0.5316,4.34941 -0.53159,1.59479 -1.98139,2.89961 -1.40148,1.30483 -3.62452,2.51299 -6.42746,3.47953 -12.37166,5.07432 -5.94419,1.59478 -12.95159,1.59478 -8.16722,0 -14.88466,-2.51299 -6.71742,-2.513 -11.45344,-7.29735 -4.73604,-4.78436 -7.29737,-11.59843 -2.51299,-6.81409 -2.51299,-15.22295 0,-8.26388 2.46468,-15.12629 2.46465,-6.86241 7.24901,-11.64677 4.78435,-4.78435 11.64676,-7.29734 6.86241,-2.56133 15.56123,-2.56133 7.15237,0 12.66163,1.93308 5.50925,1.88475 8.94046,4.78436 3.4312,2.89961 5.17097,6.1375 1.73976,3.2379 1.73976,5.75089 0,2.7063 -2.02972,4.63938 -1.9814,1.88474 -4.78435,1.88474 -1.54646,0 -2.99627,-0.7249 -1.40148,-0.72491 -2.36802,-2.02973 -2.65797,-4.1561 -4.49438,-6.28248 -1.83641,-2.12638 -4.97767,-3.57619 -3.09292,-1.4498 -7.92559,-1.4498 -4.97765,0 -8.89213,1.73976 -3.91447,1.69144 -6.71742,4.97766 -2.75464,3.2379 -4.25277,7.97393 -1.44981,4.73603 -1.44981,10.48691 0,12.46832 5.70257,19.18575 5.75088,6.71743 15.99617,6.71743 4.97766,0 9.32708,-1.30482 4.39773,-1.30483 8.89213,-3.72117 v -11.50178 h -11.11516 q -4.01113,0 -6.08918,-1.20817 -2.02972,-1.20818 -2.02972,-4.10778 0,-2.36801 1.69143,-3.91447 1.73977,-1.54646 4.68771,-1.54646 h 16.28613 q 2.99626,0 5.07432,0.53159 2.07805,0.5316 3.33454,2.36802 1.30483,1.83642 1.30483,5.50926 z"
       style="font-style:normal;font-variant:normal;font-weight:normal;font-stretch:normal;font-size:96px;line-height:1.25;font-family:'Arial Rounded MT Bold';-inkscape-font-specification:'Arial Rounded MT Bold, ';letter-spacing:0px;word-spacing:0px;fill:#e4eaf6;fill-opacity:1;stroke:none;stroke-width:1.030972"
       id="path1237"
       inkscape:connector-curvature="0" /></g><path
     inkscape:connector-curvature="0"
     id="path1231"
     style="font-style:normal;font-variant:normal;font-weight:normal;font-stretch:normal;font-size:96px;line-height:1.25;font-family:'Arial Rounded MT Bold';-inkscape-font-specification:'Arial Rounded MT Bold, ';letter-spacing:0px;word-spacing:0px;fill:#e4eaf6;fill-opacity:1;stroke:none;stroke-width:1.030972"
     d="m 359.90419,133.98784 h -5.02599 v 22.76192 q 0,4.49439 -1.9814,6.62077 -1.98139,2.12638 -5.17096,2.12638 -3.43121,0 -5.31595,-2.22303 -1.88475,-2.22302 -1.88475,-6.52412 v -54.51264 q 0,-4.639365 2.07805,-6.717425 2.07806,-2.07805 6.71743,-2.07805 h 23.34185 q 4.83268,0 8.26389,0.43494 3.43121,0.38661 6.18583,1.64311 3.33456,1.40148 5.89587,4.01113 2.56133,2.609655 3.86615,6.089175 1.35315,3.43119 1.35315,7.29734 0,7.92561 -4.49439,12.66162 -4.44606,4.73603 -13.53151,6.71744 3.81782,2.02972 7.29735,5.99252 3.47953,3.9628 6.18583,8.45719 2.75463,4.44607 4.25276,8.07058 1.54646,3.57619 1.54646,4.92934 0,1.40147 -0.91821,2.80295 -0.86988,1.35315 -2.41634,2.12638 -1.54646,0.82155 -3.57618,0.82155 -2.41634,0 -4.05945,-1.15984 -1.64312,-1.11151 -2.85129,-2.85128 -1.15984,-1.73976 -3.18957,-5.12264 l -5.75089,-9.56871 q -3.09292,-5.26763 -5.55758,-8.02225 -2.41635,-2.75463 -4.92934,-3.76949 -2.51299,-1.01487 -6.33082,-1.01486 z m 8.21556,-29.76933 H 354.8782 v 19.47572 h 12.85494 q 5.17096,0 8.69882,-0.86988 3.52786,-0.91821 5.36427,-3.04459 1.88475,-2.1747 1.88475,-5.9442 0,-2.94794 -1.49813,-5.17097 -1.49813,-2.27135 -4.15611,-3.38288 -2.51299,-1.06319 -9.90699,-1.0632 z" /><g
     id="g1414"
     transform="translate(34,44)"><path
       id="path10"
       d="m 160.293,285.35652 v 38.234 c 0,1.639 -0.651,3.212 -1.81,4.371 l -15.033,15.033 c -1.159,1.159 -2.731,1.81 -4.371,1.81 h -99.22 c -1.639,0 -3.212,-0.651 -4.371,-1.81 L 20.455,327.96153 c -1.159,-1.159 -1.81,-2.731 -1.81,-4.371 v -38.234 z"
       style="fill:#48709b"
       inkscape:connector-curvature="0" /><path
       id="path12"
       d="m 160.293,285.35652 v 22.39801 l -9.869,9.869 c -2.329,2.329 -5.487,3.637 -8.78,3.637 H 37.294 c -3.293,0 -6.451,-1.308 -8.78,-3.637 l -9.869,-9.869 v -22.39801 z"
       style="fill:#304e75"
       inkscape:connector-curvature="0" /><path
       id="path14"
       d="m 160.297,188.39653 v 99.237 c 0,1.638 -0.659,3.204 -1.813,4.368 l -15.03,15.02999 c -1.164,1.154 -2.73,1.803 -4.368,1.803 H 39.859 c -1.638,0 -3.214,-0.649 -4.378,-1.803 l -15.02,-15.02999 c -1.164,-1.164 -1.813,-2.73 -1.813,-4.368 v -99.237 c 0,-1.638 0.649,-3.204 1.813,-4.368 l 15.02,-15.03 c 1.164,-1.154 2.74,-1.803 4.378,-1.803 h 99.227 c 1.638,0 3.204,0.649 4.368,1.803 l 15.03,15.03 c 1.154,1.164 1.813,2.73 1.813,4.368 z"
       style="fill:#4d4d4d"
       inkscape:connector-curvature="0" /><path
       id="path16"
       d="m 160.297,263.70252 v 23.931 c 0,1.638 -0.659,3.204 -1.813,4.368 l -15.03,15.03 c -1.164,1.154 -2.73,1.803 -4.368,1.803 H 39.859 c -1.638,0 -3.214,-0.649 -4.378,-1.803 l -15.02,-15.03 c -1.164,-1.164 -1.813,-2.73 -1.813,-4.368 v -23.952 l 18.646,18.646 h 104.347 l 18.646,-18.646 z"
       style="fill:#000000;fill-opacity:0.26829272"
       inkscape:connector-curvature="0" /><path
       style="fill:#000000;fill-opacity:0.26829272"
       d="m 132.61,200.07052 c -4.267,0 -7.726,-3.459 -7.726,-7.726 v -0.888 c 0,-4.267 3.459,-7.726 7.726,-7.726 4.267,0 7.726,3.459 7.726,7.726 v 0.888 c 0,4.267 -3.459,7.726 -7.726,7.726 z"
       id="path44"
       inkscape:connector-curvature="0" /><path
       d="m 79.372203,238.53383 h -5.025989 v 22.76193 q 0,4.49439 -1.981404,6.62077 -1.981394,2.12638 -5.170964,2.12638 -3.431209,0 -5.315949,-2.22303 -1.884751,-2.22303 -1.884751,-6.52412 v -54.51264 q 0,-4.63937 2.078058,-6.71743 2.078048,-2.07805 6.717422,-2.07805 H 92.13048 q 4.83268,0 8.26388,0.43494 3.43121,0.38661 6.18583,1.64311 3.33455,1.40148 5.89587,4.01113 2.56133,2.60965 3.86614,6.08918 1.35316,3.43119 1.35316,7.29734 0,7.9256 -4.49439,12.66162 -4.44607,4.73603 -13.53151,6.71744 3.81782,2.02972 7.29734,5.99252 3.47953,3.9628 6.18584,8.45719 2.75463,4.44607 4.25275,8.07058 1.54646,3.57619 1.54646,4.92934 0,1.40147 -0.9182,2.80295 -0.86988,1.35315 -2.41634,2.12638 -1.54646,0.82155 -3.57619,0.82155 -2.41634,0 -4.05945,-1.15984 -1.64311,-1.11151 -2.85129,-2.85128 -1.15983,-1.73976 -3.18956,-5.12264 l -5.75089,-9.56871 q -3.09291,-5.26763 -5.55758,-8.02225 -2.41635,-2.75463 -4.92934,-3.76949 -2.512994,-1.01487 -6.330807,-1.01487 z M 87.58776,208.76451 H 74.346214 v 19.47571 H 87.20115 q 5.17096,0 8.69882,-0.86988 3.52785,-0.91821 5.36427,-3.04459 1.88475,-2.1747 1.88475,-5.9442 0,-2.94794 -1.49813,-5.17097 -1.49813,-2.27135 -4.15611,-3.38288 -2.51299,-1.06319 -9.90699,-1.06319 z"
       style="font-style:normal;font-variant:normal;font-weight:normal;font-stretch:normal;font-size:96px;line-height:1.25;font-family:'Arial Rounded MT Bold';-inkscape-font-specification:'Arial Rounded MT Bold, ';letter-spacing:0px;word-spacing:0px;fill:#e4eaf6;fill-opacity:1;stroke:none;stroke-width:1.030972"
       id="path1233"
       inkscape:connector-curvature="0" /></g><g
     id="g1430"
     transform="translate(39.262772,44)"><path
       id="path18"
       d="m 326.569,285.35652 v 38.234 c 0,1.639 -0.651,3.212 -1.81,4.371 l -15.033,15.033 c -1.159,1.159 -2.731,1.81 -4.371,1.81 h -99.229 c -1.639,0 -3.212,-0.651 -4.371,-1.81 l -15.033,-15.033 c -1.159,-1.159 -1.81,-2.731 -1.81,-4.371 v -38.234 z"
       style="fill:#48709b"
       inkscape:connector-curvature="0" /><path
       id="path20"
       d="m 326.574,285.35652 v 22.39801 l -9.879,9.872 c -2.328,2.327 -5.485,3.634 -8.777,3.634 H 203.572 c -3.292,0 -6.449,-1.307 -8.777,-3.634 l -9.879,-9.872 v -22.39801 z"
       style="fill:#304e75"
       inkscape:connector-curvature="0" /><path
       id="path22"
       d="m 326.568,188.39653 v 99.237 c 0,1.638 -0.649,3.204 -1.813,4.368 l -15.03,15.02999 c -1.154,1.154 -2.73,1.803 -4.368,1.803 H 206.13 c -1.638,0 -3.214,-0.649 -4.368,-1.803 l -15.03,-15.02999 c -1.164,-1.164 -1.813,-2.73 -1.813,-4.368 v -99.237 c 0,-1.638 0.649,-3.204 1.813,-4.368 l 15.03,-15.03 c 1.154,-1.154 2.73,-1.803 4.368,-1.803 h 99.227 c 1.638,0 3.214,0.649 4.368,1.803 l 15.03,15.03 c 1.164,1.164 1.813,2.73 1.813,4.368 z"
       style="fill:#4d4d4d"
       inkscape:connector-curvature="0" /><path
       id="path24"
       d="m 326.568,263.68253 v 23.952 c 0,1.63799 -0.649,3.204 -1.813,4.36799 l -15.03,15.03 c -1.154,1.154 -2.73,1.803 -4.368,1.803 H 206.13 c -1.638,0 -3.214,-0.649 -4.368,-1.803 l -15.03,-15.03 c -1.164,-1.16399 -1.813,-2.73 -1.813,-4.36799 v -23.952 l 18.646,18.646 h 104.357 z"
       style="fill:#000000;fill-opacity:0.26829272"
       inkscape:connector-curvature="0" /><path
       style="fill:#000000;fill-opacity:0.26829272"
       d="m 300.247,200.07052 c -4.267,0 -7.726,-3.459 -7.726,-7.726 v -0.888 c 0,-4.267 3.459,-7.726 7.726,-7.726 4.267,0 7.726,3.459 7.726,7.726 v 0.888 c 10e-4,4.267 -3.459,7.726 -7.726,7.726 z"
       id="path46"
       inkscape:connector-curvature="0" /><path
       d="m 275.12255,209.65855 h -32.33064 v 17.39766 h 29.76932 q 3.28622,0 4.881,1.49813 1.64313,1.44981 1.64313,3.86615 0,2.41634 -1.59479,3.9628 -1.59478,1.49812 -4.92934,1.49812 h -29.76932 v 20.15229 h 33.44216 q 3.38288,0 5.07432,1.59478 1.73975,1.54646 1.73975,4.1561 0,2.513 -1.73975,4.10779 -1.69144,1.54646 -5.07432,1.54646 h -38.99974 q -4.6877,0 -6.76576,-2.07806 -2.02972,-2.07805 -2.02972,-6.71742 V 207.3872 q 0,-3.09292 0.91821,-5.02599 0.91821,-1.9814 2.85128,-2.85129 1.9814,-0.9182 5.02599,-0.9182 h 37.88822 q 3.43122,0 5.07432,1.54646 1.69144,1.49812 1.69144,3.9628 0,2.51299 -1.69144,4.05945 -1.6431,1.49812 -5.07432,1.49812 z"
       style="font-style:normal;font-variant:normal;font-weight:normal;font-stretch:normal;font-size:96px;line-height:1.25;font-family:'Arial Rounded MT Bold';-inkscape-font-specification:'Arial Rounded MT Bold, ';letter-spacing:0px;word-spacing:0px;fill:#e4eaf6;fill-opacity:1;stroke:none;stroke-width:1.030972"
       id="path1235"
       inkscape:connector-curvature="0" /></g><g
     id="g897"
     transform="translate(-29.819)"><g
       transform="translate(44,44)"
       id="g1446"><path
         inkscape:connector-curvature="0"
         id="path1037"
         d="m 273.26,433.907 v 38.234 c 0,1.639 -0.651,3.212 -1.81,4.371 l -15.033,15.033 c -1.159,1.159 -2.731,1.81 -4.371,1.81 h -99.229 c -1.639,0 -3.212,-0.651 -4.371,-1.81 l -15.033,-15.033 c -1.159,-1.159 -1.81,-2.731 -1.81,-4.371 v -38.234 z"
         style="fill:#48709b" /><path
         inkscape:connector-curvature="0"
         id="path1039"
         d="m 273.26,433.907 v 22.398 l -9.879,9.872 c -2.328,2.327 -5.485,3.634 -8.777,3.634 H 150.259 c -3.292,0 -6.449,-1.307 -8.777,-3.634 l -9.879,-9.872 v -22.398 z"
         style="fill:#304e75" /><path
         inkscape:connector-curvature="0"
         id="path1041"
         d="m 273.254,336.949 v 99.227 c 0,1.648 -0.649,3.214 -1.803,4.378 l -15.03,15.03 c -1.164,1.154 -2.74,1.803 -4.378,1.803 h -99.227 c -1.638,0 -3.204,-0.649 -4.368,-1.803 l -15.03,-15.03 c -1.154,-1.164 -1.813,-2.73 -1.813,-4.378 v -99.227 c 0,-1.638 0.659,-3.204 1.813,-4.368 l 15.03,-15.03 c 1.164,-1.154 2.73,-1.813 4.368,-1.813 h 99.227 c 1.638,0 3.214,0.659 4.378,1.813 l 15.03,15.03 c 1.154,1.164 1.803,2.73 1.803,4.368 z"
         style="fill:#4d4d4d" /><path
         inkscape:connector-curvature="0"
         id="path1043"
         d="m 273.254,412.234 v 23.941 c 0,1.648 -0.649,3.214 -1.803,4.378 l -15.03,15.03 c -1.164,1.154 -2.74,1.803 -4.378,1.803 h -99.227 c -1.638,0 -3.204,-0.649 -4.368,-1.803 l -15.03,-15.03 c -1.154,-1.164 -1.813,-2.73 -1.813,-4.378 v -23.941 l 18.657,18.646 h 104.347 z"
         style="fill:#000000;fill-opacity:0.26829272" /><path
         inkscape:connector-curvature="0"
         id="path1047"
         d="m 246.934,348.622 c -4.267,0 -7.726,-3.459 -7.726,-7.726 v -0.888 c 0,-4.267 3.459,-7.726 7.726,-7.726 4.267,0 7.726,3.459 7.726,7.726 v 0.888 c 0.001,4.267 -3.459,7.726 -7.726,7.726 z"
         style="fill:#000000;fill-opacity:0.26829272" /><path
         inkscape:connector-curvature="0"
         id="path1239"
         style="font-style:normal;font-variant:normal;font-weight:normal;font-stretch:normal;font-size:96px;line-height:1.25;font-family:'Arial Rounded MT Bold';-inkscape-font-specification:'Arial Rounded MT Bold, ';letter-spacing:0px;word-spacing:0px;fill:#e4eaf6;fill-opacity:1;stroke:none;stroke-width:1.030972"
         d="m 221.80855,358.20554 h -32.33063 v 17.39766 h 29.76931 q 3.28623,0 4.88101,1.49813 1.64311,1.44981 1.64311,3.86615 0,2.41634 -1.59478,3.9628 -1.59479,1.49812 -4.92934,1.49812 h -29.76931 v 20.15229 h 33.44215 q 3.38288,0 5.07431,1.59478 1.73977,1.54646 1.73977,4.1561 0,2.513 -1.73977,4.10779 -1.69143,1.54646 -5.07431,1.54646 h -38.99974 q -4.6877,0 -6.76575,-2.07806 -2.02973,-2.07805 -2.02973,-6.71742 v -53.25615 q 0,-3.09292 0.91821,-5.02598 0.91821,-1.98141 2.85128,-2.8513 1.98141,-0.9182 5.02599,-0.9182 h 37.88822 q 3.43121,0 5.07432,1.54647 1.69143,1.49811 1.69143,3.9628 0,2.51299 -1.69143,4.05945 -1.64311,1.49812 -5.07432,1.49811 z" /></g><g
       transform="translate(44,44)"
       id="g1438"><path
         style="fill:#48709b"
         d="m 440.035,433.907 v 38.234 c 0,1.639 -0.651,3.212 -1.81,4.371 l -15.033,15.033 c -1.159,1.159 -2.731,1.81 -4.371,1.81 h -99.229 c -1.639,0 -3.212,-0.651 -4.371,-1.81 l -15.033,-15.033 c -1.159,-1.159 -1.81,-2.731 -1.81,-4.371 v -38.234 z"
         id="path1023"
         inkscape:connector-curvature="0" /><path
         style="fill:#304e75"
         d="m 440.035,433.907 v 22.398 l -9.879,9.872 c -2.328,2.327 -5.485,3.634 -8.777,3.634 H 317.034 c -3.292,0 -6.449,-1.307 -8.777,-3.634 l -9.879,-9.872 v -22.398 z"
         id="path1025"
         inkscape:connector-curvature="0" /><path
         style="fill:#4d4d4d"
         d="m 440.029,336.949 v 99.227 c 0,1.648 -0.649,3.214 -1.803,4.378 l -15.03,15.03 c -1.164,1.154 -2.74,1.803 -4.378,1.803 h -99.227 c -1.638,0 -3.204,-0.649 -4.368,-1.803 l -15.03,-15.03 c -1.154,-1.164 -1.813,-2.73 -1.813,-4.378 v -99.227 c 0,-1.638 0.659,-3.204 1.813,-4.368 l 15.03,-15.03 c 1.164,-1.154 2.73,-1.813 4.368,-1.813 h 99.227 c 1.638,0 3.214,0.659 4.378,1.813 l 15.03,15.03 c 1.154,1.164 1.803,2.73 1.803,4.368 z"
         id="path1027"
         inkscape:connector-curvature="0" /><path
         style="fill:#000000;fill-opacity:0.26829272"
         d="m 440.029,412.234 v 23.941 c 0,1.648 -0.649,3.214 -1.803,4.378 l -15.03,15.03 c -1.164,1.154 -2.74,1.803 -4.378,1.803 h -99.227 c -1.638,0 -3.204,-0.649 -4.368,-1.803 l -15.03,-15.03 c -1.154,-1.164 -1.813,-2.73 -1.813,-4.378 v -23.941 l 18.657,18.646 h 104.347 z"
         id="path1029"
         inkscape:connector-curvature="0" /><path
         style="fill:#000000;fill-opacity:0.26829272"
         d="m 413.709,348.622 c -4.267,0 -7.726,-3.459 -7.726,-7.726 v -0.888 c 0,-4.267 3.459,-7.726 7.726,-7.726 4.267,0 7.726,3.459 7.726,7.726 v 0.888 c 10e-4,4.267 -3.459,7.726 -7.726,7.726 z"
         id="path1033"
         inkscape:connector-curvature="0" /><path
         inkscape:connector-curvature="0"
         id="path1241"
         style="font-style:normal;font-variant:normal;font-weight:normal;font-stretch:normal;font-size:96px;line-height:1.25;font-family:'Arial Rounded MT Bold';-inkscape-font-specification:'Arial Rounded MT Bold, ';letter-spacing:0px;word-spacing:0px;fill:#e4eaf6;fill-opacity:1;stroke:none;stroke-width:1.030972"
         d="m 344.67864,404.21268 15.8512,-23.14854 -13.3382,-20.58722 q -1.88475,-2.99626 -2.85128,-5.12264 -0.91822,-2.17471 -0.91822,-4.15611 0,-2.02972 1.7881,-3.62451 1.83642,-1.64312 4.44607,-1.64312 2.99626,0 4.63937,1.7881 1.69144,1.73977 4.63938,6.52412 l 10.63189,17.20434 11.3568,-17.20434 q 1.40148,-2.17471 2.36802,-3.72116 1.01486,-1.54646 1.93307,-2.56133 0.91821,-1.01486 2.02973,-1.49813 1.15984,-0.5316 2.65797,-0.5316 2.7063,0 4.39774,1.64312 1.73977,1.59479 1.73977,3.81782 0,3.23789 -3.72117,8.79548 l -13.96645,20.87718 15.02964,23.14854 q 2.02972,3.04459 2.94794,5.07432 0.9182,1.98139 0.9182,3.76949 0,1.69144 -0.82155,3.09292 -0.82156,1.40147 -2.31968,2.22303 -1.49814,0.82155 -3.38288,0.82155 -2.02973,0 -3.43121,-0.86988 -1.40147,-0.82155 -2.27136,-2.07805 -0.86988,-1.2565 -3.2379,-4.88101 l -12.46831,-19.62068 -13.24155,20.2006 q -1.54646,2.41634 -2.22303,3.38288 -0.62825,0.96654 -1.54646,1.88476 -0.91821,0.9182 -2.1747,1.4498 -1.2565,0.53159 -2.94794,0.53159 -2.60965,0 -4.34942,-1.59478 -1.69143,-1.59479 -1.69143,-4.63937 0,-3.57619 3.52785,-8.74717 z" /></g></g></svg>